PathFileType	4	(X/Y/Z)	11_2_84_p0_0-240_filt_butterworth.trc
DataRate	CameraRate	NumFrames	NumMarkers	Units	OrigDataRate	OrigDataStartFrame	OrigNumFrames
59.0	59.0	6	27	m	59.0	120	240
Frame#	Time	RHip			RKnee			RAnkle			RBigToe			RSmallToe			RHeel			LHip			LKnee			LAnkle			LBigToe			LSmallToe			LHeel			Neck			Head			Nose			RShoulder			RElbow			RWrist			RThumb			RIndex			RPinky			LShoulder			LElbow			LWrist			LThumb			LIndex			LPinky			
		X1	Y1	Z1	X2	Y2	Z2	X3	Y3	Z3	X4	Y4	Z4	X5	Y5	Z5	X6	Y6	Z6	X7	Y7	Z7	X8	Y8	Z8	X9	Y9	Z9	X10	Y10	Z10	X11	Y11	Z11	X12	Y12	Z12	X13	Y13	Z13	X14	Y14	Z14	X15	Y15	Z15	X16	Y16	Z16	X17	Y17	Z17	X18	Y18	Z18	X19	Y19	Z19	X20	Y20	Z20	X21	Y21	Z21	X22	Y22	Z22	X23	Y23	Z23	X24	Y24	Z24	X25	Y25	Z25	X26	Y26	Z26	X27	Y27	Z27	
120	2.0338983050847457	0.3763796517636807	0.6076453444006472	0.6203325297584351	0.38287246028029853	0.6668300767278307	1.0578339518357276	0.35965804739052687	0.6938851166808594	1.4560155924856302	0.3588097963741467	0.5254089374796209	1.4504227524565734	0.40928283194152976	0.5504305679504672	1.442438646181336	0.3330675003453052	0.7793854631630522	1.5279739778659203	0.20120225940758493	0.5445413865277843	0.6036952802403541	0.16737500972515404	0.6409593989164523	1.0683902518342414	0.1860579827309542	0.68901749646302	1.447022809068224	0.20245733265564883	0.504532826776588	1.4386231130287552	0.144074404110942	0.5523142458114519	1.4364730292516044	0.18879415747804906	0.7493511987546341	1.514328297686058	0.28851598116208665	0.4623390054767731	0.1356457005343502	0.3048346049010048	0.3221706195302864	-0.12117655939086079	0.314245976431106	0.2949684970152914	0.040990438657497935	0.4312978213235441	0.4577333708701524	0.15749788255173552	0.42781366592685394	0.4188764036517497	0.4080455259269543	0.32742724879845236	0.3218070030996255	0.21255120461800087	0.27414176081493724	0.29500243076361354	0.12125663018694663	0.2868786508151942	0.2657814289342485	0.1176516529946632	0.2819836394139878	0.20893098034723717	0.1640010255446387	0.13736126250731326	0.43123607614919574	0.16682827263751826	0.10037319852285005	0.5192444825518692	0.4306111479190072	0.12057292467152914	0.5202907012554382	0.6798115158704872	0.18068393213148487	0.4891022892281947	0.7711693012472512	0.15970049465626715	0.484562956613707	0.7909121631036331	0.11700225718169649	0.5392573483683257	0.8088289279456921
121	2.0508474576271185	0.37638480893343707	0.6077474923778041	0.6207831547900629	0.38279533001599875	0.6664960341509032	1.0578053559730123	0.35968226811896387	0.6939138368975193	1.456077267119687	0.3585334717079733	0.525587148384275	1.4517073170413297	0.40921055500277764	0.550161039250233	1.4424097284023527	0.33309400601069256	0.779376174423955	1.5280018726656297	0.20122655161525488	0.544484557842006	0.6037073903841271	0.16741863427835346	0.6409342898046438	1.0684402192393785	0.1862178536851701	0.6884517895651218	1.4478915234765142	0.20061341419111722	0.5000921101078976	1.4364590171270257	0.14398799668692844	0.5523055838525891	1.4365361079954984	0.18891731279642843	0.7491131177257743	1.5140423825221059	0.2885177340572439	0.4623797436594685	0.13564774343655384	0.30531221922763463	0.32107945077586486	-0.12120757693396284	0.3142549540998068	0.2950728694992806	0.04101962895847076	0.4332804528980032	0.4522158082218126	0.15686319547767807	0.4277702143528537	0.4190634570694891	0.40808479956762306	0.3274710069267266	0.3225391970920139	0.21400457067637407	0.2769506044563048	0.29569747139106584	0.12188152975989752	0.287342267118978	0.2660442442029627	0.1170481904205368	0.28214034207040883	0.20889756787527589	0.16331502744789467	0.13733907037440674	0.43126325225353784	0.16667999144647844	0.1003665852776118	0.5190519924968577	0.43058163847140724	0.12079383929405756	0.5202753713085685	0.6784317746888696	0.18106816063573505	0.4893738586287313	0.77099431866253	0.15993412462284834	0.4847561750514004	0.7916071502731951	0.11717547145381976	0.5416534118570971	0.8095057912069705
122	2.067796610169492	0.3762801483224021	0.6075589353528434	0.62031976417303	0.3827395870161409	0.6662566941346986	1.0576580557090025	0.35967131726446794	0.6939443902566504	1.4560856849726447	0.3584155486055761	0.5256880158611358	1.4522189425406065	0.40919444699268914	0.5499659838896332	1.4424055264337674	0.3330911631523773	0.7793423815512048	1.527984607714752	0.2012453670349858	0.544479423135771	0.6037931976705088	0.1674308035836713	0.6409098433395869	1.068506671035655	0.18628834064248806	0.6883109738954755	1.4482301672046047	0.20009554969237275	0.49855347462349275	1.4356807900586313	0.14395632466987665	0.5523103145654071	1.4365899052693505	0.18900296049665932	0.7490620162391121	1.5139446909189243	0.2885458953883241	0.4624424384801563	0.13564236336054467	0.30653136274886594	0.3182204854505824	-0.12123328959947233	0.3138791008767931	0.29492882003040705	0.041042996899251574	0.43426439151916657	0.44946333671567623	0.15661293842412552	0.4272541467552913	0.4204391828342158	0.40836296069689915	0.3274868269480239	0.32308159963500266	0.21496494459352058	0.27911486127859786	0.29861761654987684	0.122204022033703	0.28736511001182474	0.26590551625926817	0.1164278151001221	0.28225335118023226	0.20885101580086818	0.16282888226957112	0.13731005626954892	0.43128225593437397	0.16644237716969384	0.10035798905905784	0.5189142587562583	0.4305959885159649	0.12097107428978696	0.520277869948199	0.6774460800581126	0.18115733363637931	0.48935627631724576	0.7694799967915668	0.1597456162975503	0.4875625919208453	0.7916956858867347	0.11719295067726453	0.5435940381552729	0.8086063751767796
123	2.0847457627118646	0.3760754276351466	0.6071563453127192	0.6190487966526361	0.3827290730235281	0.666217103356481	1.0575767223811132	0.3596491379759447	0.693970806438353	1.4560596058316473	0.35838487817323567	0.5257657900314264	1.4521832614154948	0.409268474072673	0.5500976966845412	1.4424743168785659	0.3330493955168331	0.779169894147073	1.527872723381631	0.20126202005805738	0.5444863678045821	0.6038052897361816	0.1674142980127053	0.6408968662823754	1.0685922497413678	0.1863054092899954	0.688400048439665	1.4482267946537548	0.20104503720337674	0.499137793251158	1.4358745800560493	0.1439662141739675	0.5523311855002948	1.436612059646165	0.18907215662303353	0.7491576006285418	1.5139636952257653	0.2885900015783156	0.4622970732917233	0.13563237939657585	0.3081421812934192	0.3144208400806019	-0.12126280792446986	0.31289858095709244	0.2943773967361296	0.04108231769628364	0.43438716042014985	0.44910182824254297	0.15661257242445953	0.4260250994984087	0.4237519646327674	0.4090742630690658	0.3276338650806871	0.32295814628717895	0.2153229841759938	0.2797049984878487	0.30345510781470675	0.12253091554268211	0.28743154398981274	0.26565498046834	0.11608823459058912	0.28232325925847324	0.20879336865716006	0.16268206045242412	0.1372878854762711	0.4312951002532361	0.16626866629594345	0.10035431185571142	0.5188615962354503	0.4306047427011919	0.12105419671751319	0.5202919257379145	0.6774430286916078	0.18096496260659178	0.48892520955668484	0.7679619330785715	0.15938774867367722	0.49057777927579305	0.791384263970359	0.11718233564874986	0.5444723044495101	0.8073178606980442
124	2.101694915254237	0.3758412887990613	0.6067222471275783	0.6174654409166999	0.38276714462510586	0.6664072628519465	1.0576201811978296	0.3596338189661384	0.6939952305821224	1.4560323746544679	0.3583335977282863	0.5258339989055567	1.4519077163466416	0.4093709742001002	0.5504744228873776	1.442571393695517	0.33298412325594584	0.7788533262532891	1.5276862118053354	0.2012715726984806	0.5444872723898718	0.6037353482117866	0.16738756499469548	0.6408937844214215	1.0686651364783966	0.18630707685793052	0.6884879555053752	1.4481396447444566	0.2021719236682004	0.5001234957478649	1.4362161931049782	0.14398486761258542	0.552362438965739	1.4366046031937458	0.18912933288185774	0.7492665431824855	1.5139866378402593	0.28859441007578385	0.46168200702743234	0.13562706549696166	0.30937215773578863	0.3115358837992061	-0.12105042047152692	0.31158090647374537	0.29358756028361777	0.0411507506737436	0.4342252442636336	0.44953442043443687	0.1566865459103467	0.4244674221966427	0.42810156243926756	0.4100314724765663	0.3282630169411038	0.32148915559096014	0.2153862315786332	0.279601272772935	0.30650999801487333	0.12280123657157184	0.28791080178838263	0.26565640383213796	0.11599543244231163	0.28239258914091775	0.20869199395300686	0.16274547315184118	0.1372812057468179	0.43130591628865506	0.16620158785340153	0.10035252478398707	0.5188523386665828	0.43060390803165915	0.12103687079771203	0.5203066940720519	0.678441660952387	0.18076709972696697	0.488483242074659	0.7673085195076129	0.15924840718049219	0.49192653128910346	0.7912005286945305	0.11713247669810337	0.5444707537192663	0.8063936732520595
125	2.1186440677966103	0.3756966835941916	0.6064831865008856	0.616325785608559	0.38284127871488965	0.6667522839952537	1.0577427076985035	0.35962463425015423	0.6940130971608195	1.4560116998504873	0.3582804860097752	0.5258883299645072	1.451690946052576	0.4094422267495744	0.5507783834341862	1.442624943179948	0.3329866414596273	0.7788784448010078	1.5276848581995859	0.20126477632592693	0.5445286321136197	0.6037277423563867	0.1673680980416427	0.6408936136755029	1.068689406492032	0.18630315988791551	0.6885102116034633	1.4480879827269157	0.20232429372554683	0.5005885990256413	1.436258193495215	0.1439996182297954	0.5523974100948217	1.4366027714060579	0.18912494359024207	0.7493042502164644	1.513973316563644	0.28853516389165784	0.4607993502312713	0.13564355641831005	0.3098724283905745	0.3103943322852581	-0.12035718747638048	0.3105551088895116	0.2929576632512305	0.04116214168556593	0.4340904706621328	0.4498923854928414	0.15677060962210806	0.4233382859681561	0.4314109782738903	0.41076698906786224	0.3294407578325087	0.3181687936332175	0.21528341137615364	0.28042436249816916	0.30452300440694924	0.12271358348602941	0.28863074475316797	0.2659347536294689	0.11598625275064643	0.28249129999759065	0.20848858450725213	0.16286404674167387	0.13728720047348608	0.43131123190168597	0.16619961404056502	0.10034754780285997	0.5188577164412785	0.4306158646717843	0.12092673611180904	0.5203079414340086	0.6798809655097295	0.18081247893850205	0.488821354743762	0.7677076094083711	0.15933779176929735	0.4919041424456589	0.7915714506375936	0.11698874646989145	0.5442148549474504	0.8060625620696755
